<svg xmlns="http://www.w3.org/2000/svg" version="1.1" xmlns:xlink="http://www.w3.org/1999/xlink" xmlns:svgjs="http://svgjs.com/svgjs" width="1440" height="660" preserveAspectRatio="none" viewBox="0 0 1440 660"><g mask="url(&quot;#SvgjsMask1021&quot;)" fill="none"><rect width="1440" height="660" x="0" y="0" fill="#0e2a47"></rect><path d="M1160.97 235.7a5.18 5.18 0 1 0-10.2 1.82z" fill="#d3b714"></path><path d="M922.11 474.99a2.69 2.69 0 1 0-4.39-3.11z" stroke="#e73635"></path><path d="M821.7 166.97L833.12 166.97L833.12 178.39L821.7 178.39z" stroke="#037b0b"></path><path d="M197.86 356.35 a28.57 28.57 0 1 0 57.14 0 a28.57 28.57 0 1 0 -57.14 0z" stroke="#d3b714"></path><path d="M273.94 282.72L306.62 282.72L306.62 315.4L273.94 315.4z" stroke="#037b0b"></path><path d="M543.54 610.18 a40.33 40.33 0 1 0 80.66 0 a40.33 40.33 0 1 0 -80.66 0z" stroke="#e73635"></path><path d="M666.23 110.1 a14.73 14.73 0 1 0 29.46 0 a14.73 14.73 0 1 0 -29.46 0z" fill="#d3b714"></path><path d="M1355.72 580.79 a7.31 7.31 0 1 0 14.62 0 a7.31 7.31 0 1 0 -14.62 0z" fill="#d3b714"></path><path d="M525.51 391.82L550.78 391.82L550.78 438.49L525.51 438.49z" stroke="#037b0b"></path><path d="M985.33 405.73L1048.15 405.73L1048.15 418.72L985.33 418.72z" fill="#d3b714"></path><path d="M1348.43 390.52L1364.4 390.52L1364.4 400.4L1348.43 400.4z" stroke="#e73635"></path><path d="M484.17 245.58 a25.45 25.45 0 1 0 50.9 0 a25.45 25.45 0 1 0 -50.9 0z" stroke="#e73635"></path><path d="M878.17 308.02 a52.04 52.04 0 1 0 104.08 0 a52.04 52.04 0 1 0 -104.08 0z" stroke="#d3b714"></path><path d="M637.27 288.47a15.36 15.36 0 1 0-27.5-13.69z" fill="#e73635"></path><path d="M1148.57 294.69L1153.98 294.69L1153.98 311.45L1148.57 311.45z" stroke="#d3b714"></path><path d="M1183.97 471.51 a45.51 45.51 0 1 0 91.02 0 a45.51 45.51 0 1 0 -91.02 0z" stroke="#037b0b"></path><path d="M911.19 222.23L973.34 222.23L973.34 230.8L911.19 230.8z" stroke="#e73635"></path><path d="M186.29 601.78a18.24 18.24 0 1 0 15.63-32.97z" stroke="#e73635"></path><path d="M196.12 421.57L228 421.57L228 453.45L196.12 453.45z" stroke="#d3b714"></path><path d="M736.86 283.43L753.03 283.43L753.03 299.6L736.86 299.6z" fill="#037b0b"></path><path d="M394.7 543.07 a59.55 59.55 0 1 0 119.1 0 a59.55 59.55 0 1 0 -119.1 0z" stroke="#d3b714"></path><path d="M942.86 518.82a8.23 8.23 0 1 0-16.03-3.75z" stroke="#d3b714"></path><path d="M953.76 164.63L961.42 164.63L961.42 172.29L953.76 172.29z" fill="#d3b714"></path><path d="M178.77 268.61L226.83 268.61L226.83 269.23L178.77 269.23z" stroke="#e73635"></path><path d="M961.06 307.52 a24.23 24.23 0 1 0 48.46 0 a24.23 24.23 0 1 0 -48.46 0z" stroke="#037b0b"></path><path d="M64.05 41.76L64.5 41.76L64.5 42.21L64.05 42.21z" fill="#037b0b"></path><path d="M-33.95 246.44 a40.06 40.06 0 1 0 80.12 0 a40.06 40.06 0 1 0 -80.12 0z" stroke="#037b0b"></path><path d="M886.37 319.54L939.46 319.54L939.46 371.19L886.37 371.19z" fill="#d3b714"></path></g><defs><mask id="SvgjsMask1021"><rect width="1440" height="660" fill="#ffffff"></rect></mask></defs></svg>